<?xml version="1.0" encoding="UTF-8" standalone="no"?>
<!DOCTYPE svg PUBLIC "-//W3C//DTD SVG 1.1//EN"
 "http://www.w3.org/Graphics/SVG/1.1/DTD/svg11.dtd">
<!-- Generated by graphviz version 9.0.0 (20230911.1827)
 -->
<!-- Pages: 1 -->
<svg width="1436pt" height="1340pt"
 viewBox="0.00 0.00 1436.00 1339.81" xmlns="http://www.w3.org/2000/svg" xmlns:xlink="http://www.w3.org/1999/xlink">
<g id="graph0" class="graph" transform="scale(0.858852 0.858852) rotate(0) translate(4 1556)">
<polygon fill="white" stroke="none" points="-4,4 -4,-1556 1668,-1556 1668,4 -4,4"/>
<!-- 2293388427728 -->
<g id="node1" class="node">
<title>2293388427728</title>
<polygon fill="#caff70" stroke="black" points="1496,-32 1442,-32 1442,0 1496,0 1496,-32"/>
<text text-anchor="middle" x="1469" y="-6.5" font-family="monospace" font-size="10.00"> ()</text>
</g>
<!-- 2299265299984 -->
<g id="node2" class="node">
<title>2299265299984</title>
<polygon fill="lightgrey" stroke="black" points="1516,-88 1422,-88 1422,-68 1516,-68 1516,-88"/>
<text text-anchor="middle" x="1469" y="-74.5" font-family="monospace" font-size="10.00">MeanBackward0</text>
</g>
<!-- 2299265299984&#45;&gt;2293388427728 -->
<g id="edge66" class="edge">
<title>2299265299984&#45;&gt;2293388427728</title>
<path fill="none" stroke="black" d="M1469,-67.62C1469,-61.1 1469,-52.05 1469,-43.4"/>
<polygon fill="black" stroke="black" points="1472.5,-43.65 1469,-33.65 1465.5,-43.65 1472.5,-43.65"/>
</g>
<!-- 2299265299696 -->
<g id="node3" class="node">
<title>2299265299696</title>
<polygon fill="lightgrey" stroke="black" points="1525,-144 1413,-144 1413,-124 1525,-124 1525,-144"/>
<text text-anchor="middle" x="1469" y="-130.5" font-family="monospace" font-size="10.00">SqueezeBackward0</text>
</g>
<!-- 2299265299696&#45;&gt;2299265299984 -->
<g id="edge1" class="edge">
<title>2299265299696&#45;&gt;2299265299984</title>
<path fill="none" stroke="black" d="M1469,-123.59C1469,-117.01 1469,-107.96 1469,-99.73"/>
<polygon fill="black" stroke="black" points="1472.5,-99.81 1469,-89.81 1465.5,-99.81 1472.5,-99.81"/>
</g>
<!-- 2299265299360 -->
<g id="node4" class="node">
<title>2299265299360</title>
<polygon fill="lightgrey" stroke="black" points="1516,-200 1422,-200 1422,-180 1516,-180 1516,-200"/>
<text text-anchor="middle" x="1469" y="-186.5" font-family="monospace" font-size="10.00">ViewBackward0</text>
</g>
<!-- 2299265299360&#45;&gt;2299265299696 -->
<g id="edge2" class="edge">
<title>2299265299360&#45;&gt;2299265299696</title>
<path fill="none" stroke="black" d="M1469,-179.59C1469,-173.01 1469,-163.96 1469,-155.73"/>
<polygon fill="black" stroke="black" points="1472.5,-155.81 1469,-145.81 1465.5,-155.81 1472.5,-155.81"/>
</g>
<!-- 2299265299456 -->
<g id="node5" class="node">
<title>2299265299456</title>
<polygon fill="lightgrey" stroke="black" points="1519,-256 1419,-256 1419,-236 1519,-236 1519,-256"/>
<text text-anchor="middle" x="1469" y="-242.5" font-family="monospace" font-size="10.00">AddmmBackward0</text>
</g>
<!-- 2299265299456&#45;&gt;2299265299360 -->
<g id="edge3" class="edge">
<title>2299265299456&#45;&gt;2299265299360</title>
<path fill="none" stroke="black" d="M1469,-235.59C1469,-229.01 1469,-219.96 1469,-211.73"/>
<polygon fill="black" stroke="black" points="1472.5,-211.81 1469,-201.81 1465.5,-211.81 1472.5,-211.81"/>
</g>
<!-- 2299265298640 -->
<g id="node6" class="node">
<title>2299265298640</title>
<polygon fill="lightgrey" stroke="black" points="1392,-312 1292,-312 1292,-292 1392,-292 1392,-312"/>
<text text-anchor="middle" x="1342" y="-298.5" font-family="monospace" font-size="10.00">AccumulateGrad</text>
</g>
<!-- 2299265298640&#45;&gt;2299265299456 -->
<g id="edge4" class="edge">
<title>2299265298640&#45;&gt;2299265299456</title>
<path fill="none" stroke="black" d="M1364.12,-291.59C1384.03,-283.13 1413.55,-270.58 1436.21,-260.94"/>
<polygon fill="black" stroke="black" points="1437.48,-264.21 1445.31,-257.07 1434.74,-257.76 1437.48,-264.21"/>
</g>
<!-- 2299700936880 -->
<g id="node7" class="node">
<title>2299700936880</title>
<polygon fill="lightblue" stroke="black" points="1377,-380 1283,-380 1283,-348 1377,-348 1377,-380"/>
<text text-anchor="middle" x="1330" y="-366.5" font-family="monospace" font-size="10.00">fc_final.bias</text>
<text text-anchor="middle" x="1330" y="-354.5" font-family="monospace" font-size="10.00"> (5)</text>
</g>
<!-- 2299700936880&#45;&gt;2299265298640 -->
<g id="edge5" class="edge">
<title>2299700936880&#45;&gt;2299265298640</title>
<path fill="none" stroke="black" d="M1333.09,-347.55C1334.55,-340.26 1336.31,-331.45 1337.88,-323.6"/>
<polygon fill="black" stroke="black" points="1341.29,-324.38 1339.82,-313.89 1334.43,-323.01 1341.29,-324.38"/>
</g>
<!-- 2299265299312 -->
<g id="node8" class="node">
<title>2299265299312</title>
<polygon fill="lightgrey" stroke="black" points="1516,-312 1422,-312 1422,-292 1516,-292 1516,-312"/>
<text text-anchor="middle" x="1469" y="-298.5" font-family="monospace" font-size="10.00">ViewBackward0</text>
</g>
<!-- 2299265299312&#45;&gt;2299265299456 -->
<g id="edge6" class="edge">
<title>2299265299312&#45;&gt;2299265299456</title>
<path fill="none" stroke="black" d="M1469,-291.59C1469,-285.01 1469,-275.96 1469,-267.73"/>
<polygon fill="black" stroke="black" points="1472.5,-267.81 1469,-257.81 1465.5,-267.81 1472.5,-267.81"/>
</g>
<!-- 2299265299216 -->
<g id="node9" class="node">
<title>2299265299216</title>
<polygon fill="lightgrey" stroke="black" points="1543,-374 1395,-374 1395,-354 1543,-354 1543,-374"/>
<text text-anchor="middle" x="1469" y="-360.5" font-family="monospace" font-size="10.00">NativeDropoutBackward0</text>
</g>
<!-- 2299265299216&#45;&gt;2299265299312 -->
<g id="edge7" class="edge">
<title>2299265299216&#45;&gt;2299265299312</title>
<path fill="none" stroke="black" d="M1469,-353.62C1469,-345.56 1469,-333.65 1469,-323.41"/>
<polygon fill="black" stroke="black" points="1472.5,-323.63 1469,-313.63 1465.5,-323.63 1472.5,-323.63"/>
</g>
<!-- 2299265298976 -->
<g id="node10" class="node">
<title>2299265298976</title>
<polygon fill="lightgrey" stroke="black" points="1516,-442 1422,-442 1422,-422 1516,-422 1516,-442"/>
<text text-anchor="middle" x="1469" y="-428.5" font-family="monospace" font-size="10.00">ReluBackward0</text>
</g>
<!-- 2299265298976&#45;&gt;2299265299216 -->
<g id="edge8" class="edge">
<title>2299265298976&#45;&gt;2299265299216</title>
<path fill="none" stroke="black" d="M1469,-421.54C1469,-412.23 1469,-397.7 1469,-385.7"/>
<polygon fill="black" stroke="black" points="1472.5,-385.95 1469,-375.95 1465.5,-385.95 1472.5,-385.95"/>
</g>
<!-- 2299265298256 -->
<g id="node11" class="node">
<title>2299265298256</title>
<polygon fill="lightgrey" stroke="black" points="1549,-504 1389,-504 1389,-484 1549,-484 1549,-504"/>
<text text-anchor="middle" x="1469" y="-490.5" font-family="monospace" font-size="10.00">NativeLayerNormBackward0</text>
</g>
<!-- 2299265298256&#45;&gt;2299265298976 -->
<g id="edge9" class="edge">
<title>2299265298256&#45;&gt;2299265298976</title>
<path fill="none" stroke="black" d="M1469,-483.62C1469,-475.56 1469,-463.65 1469,-453.41"/>
<polygon fill="black" stroke="black" points="1472.5,-453.63 1469,-443.63 1465.5,-453.63 1472.5,-453.63"/>
</g>
<!-- 2299265298736 -->
<g id="node12" class="node">
<title>2299265298736</title>
<polygon fill="lightgrey" stroke="black" points="1394,-560 1300,-560 1300,-540 1394,-540 1394,-560"/>
<text text-anchor="middle" x="1347" y="-546.5" font-family="monospace" font-size="10.00">ViewBackward0</text>
</g>
<!-- 2299265298736&#45;&gt;2299265298256 -->
<g id="edge10" class="edge">
<title>2299265298736&#45;&gt;2299265298256</title>
<path fill="none" stroke="black" d="M1368.25,-539.59C1387.29,-531.17 1415.48,-518.69 1437.2,-509.07"/>
<polygon fill="black" stroke="black" points="1438.47,-512.34 1446.2,-505.09 1435.64,-505.94 1438.47,-512.34"/>
</g>
<!-- 2299265298592 -->
<g id="node13" class="node">
<title>2299265298592</title>
<polygon fill="lightgrey" stroke="black" points="1389,-622 1289,-622 1289,-602 1389,-602 1389,-622"/>
<text text-anchor="middle" x="1339" y="-608.5" font-family="monospace" font-size="10.00">AddmmBackward0</text>
</g>
<!-- 2299265298592&#45;&gt;2299265298736 -->
<g id="edge11" class="edge">
<title>2299265298592&#45;&gt;2299265298736</title>
<path fill="none" stroke="black" d="M1340.25,-601.62C1341.32,-593.56 1342.91,-581.65 1344.28,-571.41"/>
<polygon fill="black" stroke="black" points="1347.73,-571.99 1345.58,-561.61 1340.79,-571.06 1347.73,-571.99"/>
</g>
<!-- 2299265299072 -->
<g id="node14" class="node">
<title>2299265299072</title>
<polygon fill="lightgrey" stroke="black" points="1270,-684 1170,-684 1170,-664 1270,-664 1270,-684"/>
<text text-anchor="middle" x="1220" y="-670.5" font-family="monospace" font-size="10.00">AccumulateGrad</text>
</g>
<!-- 2299265299072&#45;&gt;2299265298592 -->
<g id="edge12" class="edge">
<title>2299265299072&#45;&gt;2299265298592</title>
<path fill="none" stroke="black" d="M1238.59,-663.62C1257.81,-653.94 1288.05,-638.69 1310.32,-627.46"/>
<polygon fill="black" stroke="black" points="1311.83,-630.62 1319.19,-622.99 1308.68,-624.37 1311.83,-630.62"/>
</g>
<!-- 2299700707248 -->
<g id="node15" class="node">
<title>2299700707248</title>
<polygon fill="lightblue" stroke="black" points="1247,-752 1183,-752 1183,-720 1247,-720 1247,-752"/>
<text text-anchor="middle" x="1215" y="-738.5" font-family="monospace" font-size="10.00">fc1.bias</text>
<text text-anchor="middle" x="1215" y="-726.5" font-family="monospace" font-size="10.00"> (256)</text>
</g>
<!-- 2299700707248&#45;&gt;2299265299072 -->
<g id="edge13" class="edge">
<title>2299700707248&#45;&gt;2299265299072</title>
<path fill="none" stroke="black" d="M1216.29,-719.55C1216.9,-712.26 1217.63,-703.45 1218.28,-695.6"/>
<polygon fill="black" stroke="black" points="1221.75,-696.17 1219.09,-685.92 1214.77,-695.59 1221.75,-696.17"/>
</g>
<!-- 2299265298448 -->
<g id="node16" class="node">
<title>2299265298448</title>
<polygon fill="lightgrey" stroke="black" points="1386,-684 1292,-684 1292,-664 1386,-664 1386,-684"/>
<text text-anchor="middle" x="1339" y="-670.5" font-family="monospace" font-size="10.00">ViewBackward0</text>
</g>
<!-- 2299265298448&#45;&gt;2299265298592 -->
<g id="edge14" class="edge">
<title>2299265298448&#45;&gt;2299265298592</title>
<path fill="none" stroke="black" d="M1339,-663.62C1339,-655.56 1339,-643.65 1339,-633.41"/>
<polygon fill="black" stroke="black" points="1342.5,-633.63 1339,-623.63 1335.5,-633.63 1342.5,-633.63"/>
</g>
<!-- 2299265287504 -->
<g id="node17" class="node">
<title>2299265287504</title>
<polygon fill="lightgrey" stroke="black" points="1413,-746 1265,-746 1265,-726 1413,-726 1413,-746"/>
<text text-anchor="middle" x="1339" y="-732.5" font-family="monospace" font-size="10.00">NativeDropoutBackward0</text>
</g>
<!-- 2299265287504&#45;&gt;2299265298448 -->
<g id="edge15" class="edge">
<title>2299265287504&#45;&gt;2299265298448</title>
<path fill="none" stroke="black" d="M1339,-725.62C1339,-717.56 1339,-705.65 1339,-695.41"/>
<polygon fill="black" stroke="black" points="1342.5,-695.63 1339,-685.63 1335.5,-695.63 1342.5,-695.63"/>
</g>
<!-- 2299265300224 -->
<g id="node18" class="node">
<title>2299265300224</title>
<polygon fill="lightgrey" stroke="black" points="1386,-814 1292,-814 1292,-794 1386,-794 1386,-814"/>
<text text-anchor="middle" x="1339" y="-800.5" font-family="monospace" font-size="10.00">ReluBackward0</text>
</g>
<!-- 2299265300224&#45;&gt;2299265287504 -->
<g id="edge16" class="edge">
<title>2299265300224&#45;&gt;2299265287504</title>
<path fill="none" stroke="black" d="M1339,-793.54C1339,-784.23 1339,-769.7 1339,-757.7"/>
<polygon fill="black" stroke="black" points="1342.5,-757.95 1339,-747.95 1335.5,-757.95 1342.5,-757.95"/>
</g>
<!-- 2299265300272 -->
<g id="node19" class="node">
<title>2299265300272</title>
<polygon fill="lightgrey" stroke="black" points="1419,-876 1259,-876 1259,-856 1419,-856 1419,-876"/>
<text text-anchor="middle" x="1339" y="-862.5" font-family="monospace" font-size="10.00">NativeLayerNormBackward0</text>
</g>
<!-- 2299265300272&#45;&gt;2299265300224 -->
<g id="edge17" class="edge">
<title>2299265300272&#45;&gt;2299265300224</title>
<path fill="none" stroke="black" d="M1339,-855.62C1339,-847.56 1339,-835.65 1339,-825.41"/>
<polygon fill="black" stroke="black" points="1342.5,-825.63 1339,-815.63 1335.5,-825.63 1342.5,-825.63"/>
</g>
<!-- 2299265300368 -->
<g id="node20" class="node">
<title>2299265300368</title>
<polygon fill="lightgrey" stroke="black" points="858,-932 740,-932 740,-912 858,-912 858,-932"/>
<text text-anchor="middle" x="799" y="-918.5" font-family="monospace" font-size="10.00">CudnnRnnBackward0</text>
</g>
<!-- 2299265300368&#45;&gt;2299265300272 -->
<g id="edge18" class="edge">
<title>2299265300368&#45;&gt;2299265300272</title>
<path fill="none" stroke="black" d="M858.33,-915.07C952.37,-905.66 1136.32,-887.27 1247.39,-876.16"/>
<polygon fill="black" stroke="black" points="1247.46,-879.67 1257.06,-875.19 1246.76,-872.71 1247.46,-879.67"/>
</g>
<!-- 2299265300560 -->
<g id="node21" class="node">
<title>2299265300560</title>
<polygon fill="lightgrey" stroke="black" points="300,-994 206,-994 206,-974 300,-974 300,-994"/>
<text text-anchor="middle" x="253" y="-980.5" font-family="monospace" font-size="10.00">ReluBackward0</text>
</g>
<!-- 2299265300560&#45;&gt;2299265300368 -->
<g id="edge19" class="edge">
<title>2299265300560&#45;&gt;2299265300368</title>
<path fill="none" stroke="black" d="M290.88,-973.5C300.04,-971.45 309.83,-969.46 319,-968 463.4,-944.92 634.27,-932.38 728.22,-926.75"/>
<polygon fill="black" stroke="black" points="728.28,-930.25 738.06,-926.17 727.87,-923.26 728.28,-930.25"/>
</g>
<!-- 2299265301040 -->
<g id="node22" class="node">
<title>2299265301040</title>
<polygon fill="lightgrey" stroke="black" points="294,-1062 206,-1062 206,-1042 294,-1042 294,-1062"/>
<text text-anchor="middle" x="250" y="-1048.5" font-family="monospace" font-size="10.00">AddBackward0</text>
</g>
<!-- 2299265301040&#45;&gt;2299265300560 -->
<g id="edge20" class="edge">
<title>2299265301040&#45;&gt;2299265300560</title>
<path fill="none" stroke="black" d="M250.43,-1041.54C250.85,-1032.23 251.51,-1017.7 252.06,-1005.7"/>
<polygon fill="black" stroke="black" points="255.54,-1006.1 252.5,-995.95 248.55,-1005.78 255.54,-1006.1"/>
</g>
<!-- 2299265301136 -->
<g id="node23" class="node">
<title>2299265301136</title>
<polygon fill="lightgrey" stroke="black" points="249,-1124 119,-1124 119,-1104 249,-1104 249,-1124"/>
<text text-anchor="middle" x="184" y="-1110.5" font-family="monospace" font-size="10.00">UnsafeViewBackward0</text>
</g>
<!-- 2299265301136&#45;&gt;2299265301040 -->
<g id="edge21" class="edge">
<title>2299265301136&#45;&gt;2299265301040</title>
<path fill="none" stroke="black" d="M194.31,-1103.62C204.25,-1094.59 219.51,-1080.72 231.54,-1069.78"/>
<polygon fill="black" stroke="black" points="233.81,-1072.45 238.86,-1063.13 229.1,-1067.27 233.81,-1072.45"/>
</g>
<!-- 2299265301280 -->
<g id="node24" class="node">
<title>2299265301280</title>
<polygon fill="lightgrey" stroke="black" points="225,-1186 143,-1186 143,-1166 225,-1166 225,-1186"/>
<text text-anchor="middle" x="184" y="-1172.5" font-family="monospace" font-size="10.00">MmBackward0</text>
</g>
<!-- 2299265301280&#45;&gt;2299265301136 -->
<g id="edge22" class="edge">
<title>2299265301280&#45;&gt;2299265301136</title>
<path fill="none" stroke="black" d="M184,-1165.62C184,-1157.56 184,-1145.65 184,-1135.41"/>
<polygon fill="black" stroke="black" points="187.5,-1135.63 184,-1125.63 180.5,-1135.63 187.5,-1135.63"/>
</g>
<!-- 2299265301376 -->
<g id="node25" class="node">
<title>2299265301376</title>
<polygon fill="lightgrey" stroke="black" points="189,-1248 59,-1248 59,-1228 189,-1228 189,-1248"/>
<text text-anchor="middle" x="124" y="-1234.5" font-family="monospace" font-size="10.00">UnsafeViewBackward0</text>
</g>
<!-- 2299265301376&#45;&gt;2299265301280 -->
<g id="edge23" class="edge">
<title>2299265301376&#45;&gt;2299265301280</title>
<path fill="none" stroke="black" d="M133.38,-1227.62C142.32,-1218.68 156.01,-1204.99 166.9,-1194.1"/>
<polygon fill="black" stroke="black" points="169.22,-1196.73 173.82,-1187.18 164.27,-1191.78 169.22,-1196.73"/>
</g>
<!-- 2299265301520 -->
<g id="node26" class="node">
<title>2299265301520</title>
<polygon fill="lightgrey" stroke="black" points="174,-1304 74,-1304 74,-1284 174,-1284 174,-1304"/>
<text text-anchor="middle" x="124" y="-1290.5" font-family="monospace" font-size="10.00">CloneBackward0</text>
</g>
<!-- 2299265301520&#45;&gt;2299265301376 -->
<g id="edge24" class="edge">
<title>2299265301520&#45;&gt;2299265301376</title>
<path fill="none" stroke="black" d="M124,-1283.59C124,-1277.01 124,-1267.96 124,-1259.73"/>
<polygon fill="black" stroke="black" points="127.5,-1259.81 124,-1249.81 120.5,-1259.81 127.5,-1259.81"/>
</g>
<!-- 2299265301616 -->
<g id="node27" class="node">
<title>2299265301616</title>
<polygon fill="lightgrey" stroke="black" points="186,-1366 62,-1366 62,-1346 186,-1346 186,-1366"/>
<text text-anchor="middle" x="124" y="-1352.5" font-family="monospace" font-size="10.00">TransposeBackward0</text>
</g>
<!-- 2299265301616&#45;&gt;2299265301520 -->
<g id="edge25" class="edge">
<title>2299265301616&#45;&gt;2299265301520</title>
<path fill="none" stroke="black" d="M124,-1345.62C124,-1337.56 124,-1325.65 124,-1315.41"/>
<polygon fill="black" stroke="black" points="127.5,-1315.63 124,-1305.63 120.5,-1315.63 127.5,-1315.63"/>
</g>
<!-- 2299265301712 -->
<g id="node28" class="node">
<title>2299265301712</title>
<polygon fill="lightgrey" stroke="black" points="201,-1428 47,-1428 47,-1408 201,-1408 201,-1428"/>
<text text-anchor="middle" x="124" y="-1414.5" font-family="monospace" font-size="10.00">CudnnBatchNormBackward0</text>
</g>
<!-- 2299265301712&#45;&gt;2299265301616 -->
<g id="edge26" class="edge">
<title>2299265301712&#45;&gt;2299265301616</title>
<path fill="none" stroke="black" d="M124,-1407.62C124,-1399.56 124,-1387.65 124,-1377.41"/>
<polygon fill="black" stroke="black" points="127.5,-1377.63 124,-1367.63 120.5,-1377.63 127.5,-1377.63"/>
</g>
<!-- 2299265301808 -->
<g id="node29" class="node">
<title>2299265301808</title>
<polygon fill="lightgrey" stroke="black" points="115,-1484 15,-1484 15,-1464 115,-1464 115,-1484"/>
<text text-anchor="middle" x="65" y="-1470.5" font-family="monospace" font-size="10.00">AccumulateGrad</text>
</g>
<!-- 2299265301808&#45;&gt;2299265301712 -->
<g id="edge27" class="edge">
<title>2299265301808&#45;&gt;2299265301712</title>
<path fill="none" stroke="black" d="M75.28,-1463.59C83.57,-1456.01 95.45,-1445.13 105.4,-1436.02"/>
<polygon fill="black" stroke="black" points="107.71,-1438.65 112.72,-1429.32 102.98,-1433.49 107.71,-1438.65"/>
</g>
<!-- 2299700705328 -->
<g id="node30" class="node">
<title>2299700705328</title>
<polygon fill="lightblue" stroke="black" points="118,-1552 0,-1552 0,-1520 118,-1520 118,-1552"/>
<text text-anchor="middle" x="59" y="-1538.5" font-family="monospace" font-size="10.00">batch_norm.weight</text>
<text text-anchor="middle" x="59" y="-1526.5" font-family="monospace" font-size="10.00"> (22)</text>
</g>
<!-- 2299700705328&#45;&gt;2299265301808 -->
<g id="edge28" class="edge">
<title>2299700705328&#45;&gt;2299265301808</title>
<path fill="none" stroke="black" d="M60.55,-1519.55C61.27,-1512.26 62.15,-1503.45 62.94,-1495.6"/>
<polygon fill="black" stroke="black" points="66.4,-1496.21 63.91,-1485.91 59.43,-1495.52 66.4,-1496.21"/>
</g>
<!-- 2299265301760 -->
<g id="node31" class="node">
<title>2299265301760</title>
<polygon fill="lightgrey" stroke="black" points="236,-1484 136,-1484 136,-1464 236,-1464 236,-1484"/>
<text text-anchor="middle" x="186" y="-1470.5" font-family="monospace" font-size="10.00">AccumulateGrad</text>
</g>
<!-- 2299265301760&#45;&gt;2299265301712 -->
<g id="edge29" class="edge">
<title>2299265301760&#45;&gt;2299265301712</title>
<path fill="none" stroke="black" d="M175.2,-1463.59C166.4,-1455.93 153.75,-1444.91 143.23,-1435.75"/>
<polygon fill="black" stroke="black" points="145.66,-1433.22 135.82,-1429.29 141.06,-1438.5 145.66,-1433.22"/>
</g>
<!-- 2299700706288 -->
<g id="node32" class="node">
<title>2299700706288</title>
<polygon fill="lightblue" stroke="black" points="242,-1552 136,-1552 136,-1520 242,-1520 242,-1552"/>
<text text-anchor="middle" x="189" y="-1538.5" font-family="monospace" font-size="10.00">batch_norm.bias</text>
<text text-anchor="middle" x="189" y="-1526.5" font-family="monospace" font-size="10.00"> (22)</text>
</g>
<!-- 2299700706288&#45;&gt;2299265301760 -->
<g id="edge30" class="edge">
<title>2299700706288&#45;&gt;2299265301760</title>
<path fill="none" stroke="black" d="M188.23,-1519.55C187.87,-1512.34 187.43,-1503.66 187.04,-1495.88"/>
<polygon fill="black" stroke="black" points="190.54,-1495.73 186.55,-1485.92 183.55,-1496.08 190.54,-1495.73"/>
</g>
<!-- 2299265301328 -->
<g id="node33" class="node">
<title>2299265301328</title>
<polygon fill="lightgrey" stroke="black" points="283,-1248 207,-1248 207,-1228 283,-1228 283,-1248"/>
<text text-anchor="middle" x="245" y="-1234.5" font-family="monospace" font-size="10.00">TBackward0</text>
</g>
<!-- 2299265301328&#45;&gt;2299265301280 -->
<g id="edge31" class="edge">
<title>2299265301328&#45;&gt;2299265301280</title>
<path fill="none" stroke="black" d="M235.47,-1227.62C226.37,-1218.68 212.46,-1204.99 201.39,-1194.1"/>
<polygon fill="black" stroke="black" points="203.93,-1191.69 194.34,-1187.17 199.02,-1196.68 203.93,-1191.69"/>
</g>
<!-- 2299265301664 -->
<g id="node34" class="node">
<title>2299265301664</title>
<polygon fill="lightgrey" stroke="black" points="295,-1304 195,-1304 195,-1284 295,-1284 295,-1304"/>
<text text-anchor="middle" x="245" y="-1290.5" font-family="monospace" font-size="10.00">AccumulateGrad</text>
</g>
<!-- 2299265301664&#45;&gt;2299265301328 -->
<g id="edge32" class="edge">
<title>2299265301664&#45;&gt;2299265301328</title>
<path fill="none" stroke="black" d="M245,-1283.59C245,-1277.01 245,-1267.96 245,-1259.73"/>
<polygon fill="black" stroke="black" points="248.5,-1259.81 245,-1249.81 241.5,-1259.81 248.5,-1259.81"/>
</g>
<!-- 2299700706960 -->
<g id="node35" class="node">
<title>2299700706960</title>
<polygon fill="lightblue" stroke="black" points="283,-1372 207,-1372 207,-1340 283,-1340 283,-1372"/>
<text text-anchor="middle" x="245" y="-1358.5" font-family="monospace" font-size="10.00">fc0.weight</text>
<text text-anchor="middle" x="245" y="-1346.5" font-family="monospace" font-size="10.00"> (256, 22)</text>
</g>
<!-- 2299700706960&#45;&gt;2299265301664 -->
<g id="edge33" class="edge">
<title>2299700706960&#45;&gt;2299265301664</title>
<path fill="none" stroke="black" d="M245,-1339.55C245,-1332.34 245,-1323.66 245,-1315.88"/>
<polygon fill="black" stroke="black" points="248.5,-1315.92 245,-1305.92 241.5,-1315.92 248.5,-1315.92"/>
</g>
<!-- 2299265301088 -->
<g id="node36" class="node">
<title>2299265301088</title>
<polygon fill="lightgrey" stroke="black" points="367,-1124 267,-1124 267,-1104 367,-1104 367,-1124"/>
<text text-anchor="middle" x="317" y="-1110.5" font-family="monospace" font-size="10.00">AccumulateGrad</text>
</g>
<!-- 2299265301088&#45;&gt;2299265301040 -->
<g id="edge34" class="edge">
<title>2299265301088&#45;&gt;2299265301040</title>
<path fill="none" stroke="black" d="M306.53,-1103.62C296.44,-1094.59 280.95,-1080.72 268.74,-1069.78"/>
<polygon fill="black" stroke="black" points="271.09,-1067.19 261.3,-1063.12 266.42,-1072.4 271.09,-1067.19"/>
</g>
<!-- 2299700707056 -->
<g id="node37" class="node">
<title>2299700707056</title>
<polygon fill="lightblue" stroke="black" points="349,-1192 285,-1192 285,-1160 349,-1160 349,-1192"/>
<text text-anchor="middle" x="317" y="-1178.5" font-family="monospace" font-size="10.00">fc0.bias</text>
<text text-anchor="middle" x="317" y="-1166.5" font-family="monospace" font-size="10.00"> (256)</text>
</g>
<!-- 2299700707056&#45;&gt;2299265301088 -->
<g id="edge35" class="edge">
<title>2299700707056&#45;&gt;2299265301088</title>
<path fill="none" stroke="black" d="M317,-1159.55C317,-1152.34 317,-1143.66 317,-1135.88"/>
<polygon fill="black" stroke="black" points="320.5,-1135.92 317,-1125.92 313.5,-1135.92 320.5,-1135.92"/>
</g>
<!-- 2299265300512 -->
<g id="node38" class="node">
<title>2299265300512</title>
<polygon fill="lightgrey" stroke="black" points="428,-994 328,-994 328,-974 428,-974 428,-994"/>
<text text-anchor="middle" x="378" y="-980.5" font-family="monospace" font-size="10.00">AccumulateGrad</text>
</g>
<!-- 2299265300512&#45;&gt;2299265300368 -->
<g id="edge36" class="edge">
<title>2299265300512&#45;&gt;2299265300368</title>
<path fill="none" stroke="black" d="M415.43,-973.53C424.12,-971.53 433.35,-969.55 442,-968 540.78,-950.25 656.18,-937.06 728.43,-929.69"/>
<polygon fill="black" stroke="black" points="728.54,-933.2 738.14,-928.71 727.84,-926.23 728.54,-933.2"/>
</g>
<!-- 2299700704080 -->
<g id="node39" class="node">
<title>2299700704080</title>
<polygon fill="lightblue" stroke="black" points="424,-1068 312,-1068 312,-1036 424,-1036 424,-1068"/>
<text text-anchor="middle" x="368" y="-1054.5" font-family="monospace" font-size="10.00">gru.weight_ih_l0</text>
<text text-anchor="middle" x="368" y="-1042.5" font-family="monospace" font-size="10.00"> (768, 256)</text>
</g>
<!-- 2299700704080&#45;&gt;2299265300512 -->
<g id="edge37" class="edge">
<title>2299700704080&#45;&gt;2299265300512</title>
<path fill="none" stroke="black" d="M370.32,-1035.69C371.68,-1026.7 373.42,-1015.21 374.9,-1005.44"/>
<polygon fill="black" stroke="black" points="378.32,-1006.22 376.36,-995.81 371.4,-1005.18 378.32,-1006.22"/>
</g>
<!-- 2299265300464 -->
<g id="node40" class="node">
<title>2299265300464</title>
<polygon fill="lightgrey" stroke="black" points="551,-994 451,-994 451,-974 551,-974 551,-994"/>
<text text-anchor="middle" x="501" y="-980.5" font-family="monospace" font-size="10.00">AccumulateGrad</text>
</g>
<!-- 2299265300464&#45;&gt;2299265300368 -->
<g id="edge38" class="edge">
<title>2299265300464&#45;&gt;2299265300368</title>
<path fill="none" stroke="black" d="M538.97,-973.5C546.89,-971.61 555.21,-969.68 563,-968 620.75,-955.52 686.84,-943.07 734.36,-934.44"/>
<polygon fill="black" stroke="black" points="734.72,-937.94 743.93,-932.71 733.47,-931.05 734.72,-937.94"/>
</g>
<!-- 2299700704176 -->
<g id="node41" class="node">
<title>2299700704176</title>
<polygon fill="lightblue" stroke="black" points="554,-1068 442,-1068 442,-1036 554,-1036 554,-1068"/>
<text text-anchor="middle" x="498" y="-1054.5" font-family="monospace" font-size="10.00">gru.weight_hh_l0</text>
<text text-anchor="middle" x="498" y="-1042.5" font-family="monospace" font-size="10.00"> (768, 256)</text>
</g>
<!-- 2299700704176&#45;&gt;2299265300464 -->
<g id="edge39" class="edge">
<title>2299700704176&#45;&gt;2299265300464</title>
<path fill="none" stroke="black" d="M498.7,-1035.69C499.1,-1026.8 499.62,-1015.46 500.06,-1005.77"/>
<polygon fill="black" stroke="black" points="503.55,-1005.98 500.51,-995.83 496.56,-1005.66 503.55,-1005.98"/>
</g>
<!-- 2299265300608 -->
<g id="node42" class="node">
<title>2299265300608</title>
<polygon fill="lightgrey" stroke="black" points="672,-994 572,-994 572,-974 672,-974 672,-994"/>
<text text-anchor="middle" x="622" y="-980.5" font-family="monospace" font-size="10.00">AccumulateGrad</text>
</g>
<!-- 2299265300608&#45;&gt;2299265300368 -->
<g id="edge40" class="edge">
<title>2299265300608&#45;&gt;2299265300368</title>
<path fill="none" stroke="black" d="M649.66,-973.62C679.44,-963.53 727.06,-947.39 760.5,-936.05"/>
<polygon fill="black" stroke="black" points="761.47,-939.42 769.81,-932.89 759.22,-932.79 761.47,-939.42"/>
</g>
<!-- 2299700704368 -->
<g id="node43" class="node">
<title>2299700704368</title>
<polygon fill="lightblue" stroke="black" points="672,-1068 572,-1068 572,-1036 672,-1036 672,-1068"/>
<text text-anchor="middle" x="622" y="-1054.5" font-family="monospace" font-size="10.00">gru.bias_ih_l0</text>
<text text-anchor="middle" x="622" y="-1042.5" font-family="monospace" font-size="10.00"> (768)</text>
</g>
<!-- 2299700704368&#45;&gt;2299265300608 -->
<g id="edge41" class="edge">
<title>2299700704368&#45;&gt;2299265300608</title>
<path fill="none" stroke="black" d="M622,-1035.69C622,-1026.8 622,-1015.46 622,-1005.77"/>
<polygon fill="black" stroke="black" points="625.5,-1005.83 622,-995.83 618.5,-1005.83 625.5,-1005.83"/>
</g>
<!-- 2299265300656 -->
<g id="node44" class="node">
<title>2299265300656</title>
<polygon fill="lightgrey" stroke="black" points="790,-994 690,-994 690,-974 790,-974 790,-994"/>
<text text-anchor="middle" x="740" y="-980.5" font-family="monospace" font-size="10.00">AccumulateGrad</text>
</g>
<!-- 2299265300656&#45;&gt;2299265300368 -->
<g id="edge42" class="edge">
<title>2299265300656&#45;&gt;2299265300368</title>
<path fill="none" stroke="black" d="M749.22,-973.62C758.02,-964.68 771.48,-950.99 782.18,-940.1"/>
<polygon fill="black" stroke="black" points="784.46,-942.78 788.98,-933.19 779.47,-937.87 784.46,-942.78"/>
</g>
<!-- 2299700704656 -->
<g id="node45" class="node">
<title>2299700704656</title>
<polygon fill="lightblue" stroke="black" points="790,-1068 690,-1068 690,-1036 790,-1036 790,-1068"/>
<text text-anchor="middle" x="740" y="-1054.5" font-family="monospace" font-size="10.00">gru.bias_hh_l0</text>
<text text-anchor="middle" x="740" y="-1042.5" font-family="monospace" font-size="10.00"> (768)</text>
</g>
<!-- 2299700704656&#45;&gt;2299265300656 -->
<g id="edge43" class="edge">
<title>2299700704656&#45;&gt;2299265300656</title>
<path fill="none" stroke="black" d="M740,-1035.69C740,-1026.8 740,-1015.46 740,-1005.77"/>
<polygon fill="black" stroke="black" points="743.5,-1005.83 740,-995.83 736.5,-1005.83 743.5,-1005.83"/>
</g>
<!-- 2299265300704 -->
<g id="node46" class="node">
<title>2299265300704</title>
<polygon fill="lightgrey" stroke="black" points="908,-994 808,-994 808,-974 908,-974 908,-994"/>
<text text-anchor="middle" x="858" y="-980.5" font-family="monospace" font-size="10.00">AccumulateGrad</text>
</g>
<!-- 2299265300704&#45;&gt;2299265300368 -->
<g id="edge44" class="edge">
<title>2299265300704&#45;&gt;2299265300368</title>
<path fill="none" stroke="black" d="M848.78,-973.62C839.98,-964.68 826.52,-950.99 815.82,-940.1"/>
<polygon fill="black" stroke="black" points="818.53,-937.87 809.02,-933.19 813.54,-942.78 818.53,-937.87"/>
</g>
<!-- 2299700704464 -->
<g id="node47" class="node">
<title>2299700704464</title>
<polygon fill="lightblue" stroke="black" points="920,-1068 808,-1068 808,-1036 920,-1036 920,-1068"/>
<text text-anchor="middle" x="864" y="-1054.5" font-family="monospace" font-size="10.00">gru.weight_ih_l1</text>
<text text-anchor="middle" x="864" y="-1042.5" font-family="monospace" font-size="10.00"> (768, 256)</text>
</g>
<!-- 2299700704464&#45;&gt;2299265300704 -->
<g id="edge45" class="edge">
<title>2299700704464&#45;&gt;2299265300704</title>
<path fill="none" stroke="black" d="M862.61,-1035.69C861.8,-1026.8 860.77,-1015.46 859.89,-1005.77"/>
<polygon fill="black" stroke="black" points="863.38,-1005.47 858.98,-995.82 856.4,-1006.1 863.38,-1005.47"/>
</g>
<!-- 2299265300752 -->
<g id="node48" class="node">
<title>2299265300752</title>
<polygon fill="lightgrey" stroke="black" points="1026,-994 926,-994 926,-974 1026,-974 1026,-994"/>
<text text-anchor="middle" x="976" y="-980.5" font-family="monospace" font-size="10.00">AccumulateGrad</text>
</g>
<!-- 2299265300752&#45;&gt;2299265300368 -->
<g id="edge46" class="edge">
<title>2299265300752&#45;&gt;2299265300368</title>
<path fill="none" stroke="black" d="M948.34,-973.62C918.56,-963.53 870.94,-947.39 837.5,-936.05"/>
<polygon fill="black" stroke="black" points="838.78,-932.79 828.19,-932.89 836.53,-939.42 838.78,-932.79"/>
</g>
<!-- 2299700705136 -->
<g id="node49" class="node">
<title>2299700705136</title>
<polygon fill="lightblue" stroke="black" points="1050,-1068 938,-1068 938,-1036 1050,-1036 1050,-1068"/>
<text text-anchor="middle" x="994" y="-1054.5" font-family="monospace" font-size="10.00">gru.weight_hh_l1</text>
<text text-anchor="middle" x="994" y="-1042.5" font-family="monospace" font-size="10.00"> (768, 256)</text>
</g>
<!-- 2299700705136&#45;&gt;2299265300752 -->
<g id="edge47" class="edge">
<title>2299700705136&#45;&gt;2299265300752</title>
<path fill="none" stroke="black" d="M989.83,-1035.69C987.34,-1026.6 984.17,-1014.95 981.49,-1005.12"/>
<polygon fill="black" stroke="black" points="984.95,-1004.5 978.94,-995.78 978.19,-1006.34 984.95,-1004.5"/>
</g>
<!-- 2299265300800 -->
<g id="node50" class="node">
<title>2299265300800</title>
<polygon fill="lightgrey" stroke="black" points="1144,-994 1044,-994 1044,-974 1144,-974 1144,-994"/>
<text text-anchor="middle" x="1094" y="-980.5" font-family="monospace" font-size="10.00">AccumulateGrad</text>
</g>
<!-- 2299265300800&#45;&gt;2299265300368 -->
<g id="edge48" class="edge">
<title>2299265300800&#45;&gt;2299265300368</title>
<path fill="none" stroke="black" d="M1058.2,-973.53C1050.57,-971.61 1042.53,-969.67 1035,-968 977.7,-955.27 912.09,-942.93 864.61,-934.41"/>
<polygon fill="black" stroke="black" points="865.51,-931.02 855.05,-932.7 864.28,-937.91 865.51,-931.02"/>
</g>
<!-- 2299700705040 -->
<g id="node51" class="node">
<title>2299700705040</title>
<polygon fill="lightblue" stroke="black" points="1168,-1068 1068,-1068 1068,-1036 1168,-1036 1168,-1068"/>
<text text-anchor="middle" x="1118" y="-1054.5" font-family="monospace" font-size="10.00">gru.bias_ih_l1</text>
<text text-anchor="middle" x="1118" y="-1042.5" font-family="monospace" font-size="10.00"> (768)</text>
</g>
<!-- 2299700705040&#45;&gt;2299265300800 -->
<g id="edge49" class="edge">
<title>2299700705040&#45;&gt;2299265300800</title>
<path fill="none" stroke="black" d="M1112.43,-1035.69C1109.13,-1026.6 1104.89,-1014.95 1101.32,-1005.12"/>
<polygon fill="black" stroke="black" points="1104.61,-1003.94 1097.9,-995.74 1098.03,-1006.33 1104.61,-1003.94"/>
</g>
<!-- 2299265300848 -->
<g id="node52" class="node">
<title>2299265300848</title>
<polygon fill="lightgrey" stroke="black" points="1262,-994 1162,-994 1162,-974 1262,-974 1262,-994"/>
<text text-anchor="middle" x="1212" y="-980.5" font-family="monospace" font-size="10.00">AccumulateGrad</text>
</g>
<!-- 2299265300848&#45;&gt;2299265300368 -->
<g id="edge50" class="edge">
<title>2299265300848&#45;&gt;2299265300368</title>
<path fill="none" stroke="black" d="M1177.84,-973.56C1169.74,-971.53 1161.1,-969.54 1153,-968 1055.36,-949.45 941.09,-936.48 869.36,-929.38"/>
<polygon fill="black" stroke="black" points="870.03,-925.93 859.73,-928.44 869.34,-932.89 870.03,-925.93"/>
</g>
<!-- 2299700705232 -->
<g id="node53" class="node">
<title>2299700705232</title>
<polygon fill="lightblue" stroke="black" points="1286,-1068 1186,-1068 1186,-1036 1286,-1036 1286,-1068"/>
<text text-anchor="middle" x="1236" y="-1054.5" font-family="monospace" font-size="10.00">gru.bias_hh_l1</text>
<text text-anchor="middle" x="1236" y="-1042.5" font-family="monospace" font-size="10.00"> (768)</text>
</g>
<!-- 2299700705232&#45;&gt;2299265300848 -->
<g id="edge51" class="edge">
<title>2299700705232&#45;&gt;2299265300848</title>
<path fill="none" stroke="black" d="M1230.43,-1035.69C1227.13,-1026.6 1222.89,-1014.95 1219.32,-1005.12"/>
<polygon fill="black" stroke="black" points="1222.61,-1003.94 1215.9,-995.74 1216.03,-1006.33 1222.61,-1003.94"/>
</g>
<!-- 2299265300320 -->
<g id="node54" class="node">
<title>2299265300320</title>
<polygon fill="lightgrey" stroke="black" points="1389,-932 1289,-932 1289,-912 1389,-912 1389,-932"/>
<text text-anchor="middle" x="1339" y="-918.5" font-family="monospace" font-size="10.00">AccumulateGrad</text>
</g>
<!-- 2299265300320&#45;&gt;2299265300272 -->
<g id="edge52" class="edge">
<title>2299265300320&#45;&gt;2299265300272</title>
<path fill="none" stroke="black" d="M1339,-911.59C1339,-905.01 1339,-895.96 1339,-887.73"/>
<polygon fill="black" stroke="black" points="1342.5,-887.81 1339,-877.81 1335.5,-887.81 1342.5,-887.81"/>
</g>
<!-- 2299700706576 -->
<g id="node55" class="node">
<title>2299700706576</title>
<polygon fill="lightblue" stroke="black" points="1398,-1000 1280,-1000 1280,-968 1398,-968 1398,-1000"/>
<text text-anchor="middle" x="1339" y="-986.5" font-family="monospace" font-size="10.00">layer_norm.weight</text>
<text text-anchor="middle" x="1339" y="-974.5" font-family="monospace" font-size="10.00"> (256)</text>
</g>
<!-- 2299700706576&#45;&gt;2299265300320 -->
<g id="edge53" class="edge">
<title>2299700706576&#45;&gt;2299265300320</title>
<path fill="none" stroke="black" d="M1339,-967.55C1339,-960.34 1339,-951.66 1339,-943.88"/>
<polygon fill="black" stroke="black" points="1342.5,-943.92 1339,-933.92 1335.5,-943.92 1342.5,-943.92"/>
</g>
<!-- 2299265300128 -->
<g id="node56" class="node">
<title>2299265300128</title>
<polygon fill="lightgrey" stroke="black" points="1513,-932 1413,-932 1413,-912 1513,-912 1513,-932"/>
<text text-anchor="middle" x="1463" y="-918.5" font-family="monospace" font-size="10.00">AccumulateGrad</text>
</g>
<!-- 2299265300128&#45;&gt;2299265300272 -->
<g id="edge54" class="edge">
<title>2299265300128&#45;&gt;2299265300272</title>
<path fill="none" stroke="black" d="M1441.4,-911.59C1422.05,-903.17 1393.4,-890.69 1371.32,-881.07"/>
<polygon fill="black" stroke="black" points="1372.72,-877.87 1362.16,-877.08 1369.93,-884.29 1372.72,-877.87"/>
</g>
<!-- 2299700706672 -->
<g id="node57" class="node">
<title>2299700706672</title>
<polygon fill="lightblue" stroke="black" points="1522,-1000 1416,-1000 1416,-968 1522,-968 1522,-1000"/>
<text text-anchor="middle" x="1469" y="-986.5" font-family="monospace" font-size="10.00">layer_norm.bias</text>
<text text-anchor="middle" x="1469" y="-974.5" font-family="monospace" font-size="10.00"> (256)</text>
</g>
<!-- 2299700706672&#45;&gt;2299265300128 -->
<g id="edge55" class="edge">
<title>2299700706672&#45;&gt;2299265300128</title>
<path fill="none" stroke="black" d="M1467.45,-967.55C1466.73,-960.26 1465.85,-951.45 1465.06,-943.6"/>
<polygon fill="black" stroke="black" points="1468.57,-943.52 1464.09,-933.91 1461.6,-944.21 1468.57,-943.52"/>
</g>
<!-- 2299265298688 -->
<g id="node58" class="node">
<title>2299265298688</title>
<polygon fill="lightgrey" stroke="black" points="1499,-684 1423,-684 1423,-664 1499,-664 1499,-684"/>
<text text-anchor="middle" x="1461" y="-670.5" font-family="monospace" font-size="10.00">TBackward0</text>
</g>
<!-- 2299265298688&#45;&gt;2299265298592 -->
<g id="edge56" class="edge">
<title>2299265298688&#45;&gt;2299265298592</title>
<path fill="none" stroke="black" d="M1441.94,-663.62C1422.15,-653.89 1390.96,-638.55 1368.09,-627.31"/>
<polygon fill="black" stroke="black" points="1369.8,-624.25 1359.29,-622.98 1366.72,-630.53 1369.8,-624.25"/>
</g>
<!-- 2299265300176 -->
<g id="node59" class="node">
<title>2299265300176</title>
<polygon fill="lightgrey" stroke="black" points="1531,-746 1431,-746 1431,-726 1531,-726 1531,-746"/>
<text text-anchor="middle" x="1481" y="-732.5" font-family="monospace" font-size="10.00">AccumulateGrad</text>
</g>
<!-- 2299265300176&#45;&gt;2299265298688 -->
<g id="edge57" class="edge">
<title>2299265300176&#45;&gt;2299265298688</title>
<path fill="none" stroke="black" d="M1477.88,-725.62C1475.13,-717.39 1471.04,-705.13 1467.58,-694.74"/>
<polygon fill="black" stroke="black" points="1471,-693.93 1464.52,-685.55 1464.36,-696.14 1471,-693.93"/>
</g>
<!-- 2299700707152 -->
<g id="node60" class="node">
<title>2299700707152</title>
<polygon fill="lightblue" stroke="black" points="1522,-820 1440,-820 1440,-788 1522,-788 1522,-820"/>
<text text-anchor="middle" x="1481" y="-806.5" font-family="monospace" font-size="10.00">fc1.weight</text>
<text text-anchor="middle" x="1481" y="-794.5" font-family="monospace" font-size="10.00"> (256, 256)</text>
</g>
<!-- 2299700707152&#45;&gt;2299265300176 -->
<g id="edge58" class="edge">
<title>2299700707152&#45;&gt;2299265300176</title>
<path fill="none" stroke="black" d="M1481,-787.69C1481,-778.8 1481,-767.46 1481,-757.77"/>
<polygon fill="black" stroke="black" points="1484.5,-757.83 1481,-747.83 1477.5,-757.83 1484.5,-757.83"/>
</g>
<!-- 2299265298304 -->
<g id="node61" class="node">
<title>2299265298304</title>
<polygon fill="lightgrey" stroke="black" points="1519,-560 1419,-560 1419,-540 1519,-540 1519,-560"/>
<text text-anchor="middle" x="1469" y="-546.5" font-family="monospace" font-size="10.00">AccumulateGrad</text>
</g>
<!-- 2299265298304&#45;&gt;2299265298256 -->
<g id="edge59" class="edge">
<title>2299265298304&#45;&gt;2299265298256</title>
<path fill="none" stroke="black" d="M1469,-539.59C1469,-533.01 1469,-523.96 1469,-515.73"/>
<polygon fill="black" stroke="black" points="1472.5,-515.81 1469,-505.81 1465.5,-515.81 1472.5,-515.81"/>
</g>
<!-- 2299700706768 -->
<g id="node62" class="node">
<title>2299700706768</title>
<polygon fill="lightblue" stroke="black" points="1531,-628 1407,-628 1407,-596 1531,-596 1531,-628"/>
<text text-anchor="middle" x="1469" y="-614.5" font-family="monospace" font-size="10.00">layer_norm2.weight</text>
<text text-anchor="middle" x="1469" y="-602.5" font-family="monospace" font-size="10.00"> (256)</text>
</g>
<!-- 2299700706768&#45;&gt;2299265298304 -->
<g id="edge60" class="edge">
<title>2299700706768&#45;&gt;2299265298304</title>
<path fill="none" stroke="black" d="M1469,-595.55C1469,-588.34 1469,-579.66 1469,-571.88"/>
<polygon fill="black" stroke="black" points="1472.5,-571.92 1469,-561.92 1465.5,-571.92 1472.5,-571.92"/>
</g>
<!-- 2299265299168 -->
<g id="node63" class="node">
<title>2299265299168</title>
<polygon fill="lightgrey" stroke="black" points="1646,-560 1546,-560 1546,-540 1646,-540 1646,-560"/>
<text text-anchor="middle" x="1596" y="-546.5" font-family="monospace" font-size="10.00">AccumulateGrad</text>
</g>
<!-- 2299265299168&#45;&gt;2299265298256 -->
<g id="edge61" class="edge">
<title>2299265299168&#45;&gt;2299265298256</title>
<path fill="none" stroke="black" d="M1573.88,-539.59C1553.97,-531.13 1524.45,-518.58 1501.79,-508.94"/>
<polygon fill="black" stroke="black" points="1503.26,-505.76 1492.69,-505.07 1500.52,-512.21 1503.26,-505.76"/>
</g>
<!-- 2299700706864 -->
<g id="node64" class="node">
<title>2299700706864</title>
<polygon fill="lightblue" stroke="black" points="1661,-628 1549,-628 1549,-596 1661,-596 1661,-628"/>
<text text-anchor="middle" x="1605" y="-614.5" font-family="monospace" font-size="10.00">layer_norm2.bias</text>
<text text-anchor="middle" x="1605" y="-602.5" font-family="monospace" font-size="10.00"> (256)</text>
</g>
<!-- 2299700706864&#45;&gt;2299265299168 -->
<g id="edge62" class="edge">
<title>2299700706864&#45;&gt;2299265299168</title>
<path fill="none" stroke="black" d="M1602.68,-595.55C1601.59,-588.26 1600.27,-579.45 1599.09,-571.6"/>
<polygon fill="black" stroke="black" points="1602.58,-571.27 1597.64,-561.9 1595.66,-572.31 1602.58,-571.27"/>
</g>
<!-- 2299265299648 -->
<g id="node65" class="node">
<title>2299265299648</title>
<polygon fill="lightgrey" stroke="black" points="1629,-312 1553,-312 1553,-292 1629,-292 1629,-312"/>
<text text-anchor="middle" x="1591" y="-298.5" font-family="monospace" font-size="10.00">TBackward0</text>
</g>
<!-- 2299265299648&#45;&gt;2299265299456 -->
<g id="edge63" class="edge">
<title>2299265299648&#45;&gt;2299265299456</title>
<path fill="none" stroke="black" d="M1569.75,-291.59C1550.71,-283.17 1522.52,-270.69 1500.8,-261.07"/>
<polygon fill="black" stroke="black" points="1502.36,-257.94 1491.8,-257.09 1499.53,-264.34 1502.36,-257.94"/>
</g>
<!-- 2299265298784 -->
<g id="node66" class="node">
<title>2299265298784</title>
<polygon fill="lightgrey" stroke="black" points="1661,-374 1561,-374 1561,-354 1661,-354 1661,-374"/>
<text text-anchor="middle" x="1611" y="-360.5" font-family="monospace" font-size="10.00">AccumulateGrad</text>
</g>
<!-- 2299265298784&#45;&gt;2299265299648 -->
<g id="edge64" class="edge">
<title>2299265298784&#45;&gt;2299265299648</title>
<path fill="none" stroke="black" d="M1607.88,-353.62C1605.13,-345.39 1601.04,-333.13 1597.58,-322.74"/>
<polygon fill="black" stroke="black" points="1601,-321.93 1594.52,-313.55 1594.36,-324.14 1601,-321.93"/>
</g>
<!-- 2299700936784 -->
<g id="node67" class="node">
<title>2299700936784</title>
<polygon fill="lightblue" stroke="black" points="1664,-448 1558,-448 1558,-416 1664,-416 1664,-448"/>
<text text-anchor="middle" x="1611" y="-434.5" font-family="monospace" font-size="10.00">fc_final.weight</text>
<text text-anchor="middle" x="1611" y="-422.5" font-family="monospace" font-size="10.00"> (5, 256)</text>
</g>
<!-- 2299700936784&#45;&gt;2299265298784 -->
<g id="edge65" class="edge">
<title>2299700936784&#45;&gt;2299265298784</title>
<path fill="none" stroke="black" d="M1611,-415.69C1611,-406.8 1611,-395.46 1611,-385.77"/>
<polygon fill="black" stroke="black" points="1614.5,-385.83 1611,-375.83 1607.5,-385.83 1614.5,-385.83"/>
</g>
</g>
</svg>
